<?xml version="1.0" encoding="UTF-8"?>
<!-- Generator: Adobe Illustrator 25.2.1, SVG Export Plug-In . SVG Version: 6.00 Build 0)  -->
<svg xmlns="http://www.w3.org/2000/svg" xmlns:xlink="http://www.w3.org/1999/xlink" version="1.1" id="Capa_1" x="0px" y="0px" viewBox="0 0 512 512" style="enable-background:new 0 0 512 512;" xml:space="preserve" width="512" height="512">
<g>
	<g>
		<g>
			<g>
				<g>
					<polyline style="fill:#DBE5F9;" points="6.755,291.911 14.34,291.911 14.34,299.352 6.755,299.352      "/>
				</g>
				<polygon style="fill:#E3F6FC;" points="134.937,456.593 14.34,456.593 14.34,268.181 166.684,268.181 166.684,424.846       156.988,447.489     "/>
				<g>
					<g>
						<path style="fill:#42758A;" d="M22.008,441.248c1.824,0,3.299,1.478,3.299,3.299c0,1.824-1.475,3.301-3.299,3.301        c-1.317,0-2.455-0.769-2.981-1.881h3.585c0.423,0,0.763-0.346,0.763-0.769v-1.304c0-0.422-0.34-0.761-0.763-0.761h-3.585        C19.553,442.018,20.691,441.248,22.008,441.248"/>
						<path style="fill:#42758A;" d="M22.008,430.977c1.824,0,3.299,1.478,3.299,3.302c0,1.82-1.475,3.296-3.299,3.296        c-1.317,0-2.455-0.766-2.981-1.882h3.585c0.423,0,0.763-0.342,0.763-0.761v-1.306c0-0.423-0.34-0.764-0.763-0.764h-3.585        C19.553,431.747,20.691,430.977,22.008,430.977"/>
						<path style="fill:#42758A;" d="M22.008,420.708c1.824,0,3.299,1.477,3.299,3.297c0,1.824-1.475,3.299-3.299,3.299        c-1.317,0-2.455-0.767-2.981-1.886h3.585c0.423,0,0.763-0.344,0.763-0.758v-1.308c0-0.422-0.34-0.761-0.763-0.761h-3.585        C19.553,421.473,20.691,420.708,22.008,420.708"/>
						<path style="fill:#42758A;" d="M22.008,410.436c1.824,0,3.299,1.475,3.299,3.301c0,1.824-1.475,3.302-3.299,3.302        c-1.317,0-2.455-0.771-2.981-1.887h3.585c0.423,0,0.763-0.34,0.763-0.764v-1.299c0-0.428-0.34-0.769-0.763-0.769h-3.585        C19.553,411.204,20.691,410.436,22.008,410.436"/>
						<path style="fill:#42758A;" d="M22.008,400.171c1.824,0,3.299,1.473,3.299,3.296c0,1.825-1.475,3.301-3.299,3.301        c-1.317,0-2.455-0.77-2.981-1.883h3.585c0.423,0,0.763-0.343,0.763-0.766v-1.303c0-0.422-0.34-0.76-0.763-0.76h-3.585        C19.553,400.936,20.691,400.171,22.008,400.171"/>
						<path style="fill:#42758A;" d="M22.008,389.897c1.824,0,3.299,1.478,3.299,3.299c0,1.824-1.475,3.303-3.299,3.303        c-1.317,0-2.455-0.771-2.981-1.886h3.585c0.423,0,0.763-0.343,0.763-0.764v-1.304c0-0.422-0.34-0.761-0.763-0.761h-3.585        C19.553,390.667,20.691,389.897,22.008,389.897"/>
						<path style="fill:#42758A;" d="M22.008,379.626c1.824,0,3.299,1.478,3.299,3.302c0,1.82-1.475,3.296-3.299,3.296        c-1.317,0-2.455-0.769-2.981-1.885h3.585c0.423,0,0.763-0.34,0.763-0.761v-1.306c0-0.42-0.34-0.761-0.763-0.761h-3.585        C19.553,380.396,20.691,379.626,22.008,379.626"/>
						<path style="fill:#42758A;" d="M22.008,369.354c1.824,0,3.299,1.479,3.299,3.302c0,1.819-1.475,3.302-3.299,3.302        c-1.317,0-2.455-0.772-2.981-1.888h3.585c0.423,0,0.763-0.339,0.763-0.763v-1.301c0-0.424-0.34-0.769-0.763-0.769h-3.585        C19.553,370.125,20.691,369.354,22.008,369.354"/>
						<path style="fill:#42758A;" d="M22.008,359.088c1.824,0,3.299,1.475,3.299,3.301c0,1.824-1.475,3.297-3.299,3.297        c-1.317,0-2.455-0.765-2.981-1.885h3.585c0.423,0,0.763-0.342,0.763-0.761v-1.307c0-0.421-0.34-0.759-0.763-0.759h-3.585        C19.553,359.858,20.691,359.088,22.008,359.088"/>
						<path style="fill:#42758A;" d="M22.008,348.817c1.824,0,3.299,1.478,3.299,3.296c0,1.828-1.475,3.303-3.299,3.303        c-1.317,0-2.455-0.768-2.981-1.886h3.585c0.423,0,0.763-0.341,0.763-0.761v-1.306c0-0.416-0.34-0.76-0.763-0.76h-3.585        C19.553,349.588,20.691,348.817,22.008,348.817"/>
						<path style="fill:#42758A;" d="M22.008,338.548c1.824,0,3.299,1.473,3.299,3.297c0,1.827-1.475,3.301-3.299,3.301        c-1.317,0-2.455-0.771-2.981-1.883h3.585c0.423,0,0.763-0.343,0.763-0.763v-1.308c0-0.419-0.34-0.759-0.763-0.759h-3.585        C19.553,339.313,20.691,338.548,22.008,338.548"/>
						<path style="fill:#42758A;" d="M22.008,328.275c1.824,0,3.299,1.478,3.299,3.297c0,1.825-1.475,3.308-3.299,3.308        c-1.317,0-2.455-0.776-2.981-1.887h3.585c0.423,0,0.763-0.342,0.763-0.766v-1.301c0-0.425-0.34-0.769-0.763-0.769h-3.585        C19.553,329.045,20.691,328.275,22.008,328.275"/>
						<path style="fill:#42758A;" d="M22.008,318.011c1.824,0,3.299,1.474,3.299,3.297c0,1.822-1.475,3.298-3.299,3.298        c-1.317,0-2.455-0.769-2.981-1.882h3.585c0.423,0,0.763-0.346,0.763-0.765v-1.306c0-0.422-0.34-0.761-0.763-0.761h-3.585        C19.553,318.776,20.691,318.011,22.008,318.011"/>
						<path style="fill:#42758A;" d="M22.008,307.734c1.824,0,3.299,1.48,3.299,3.303c0,1.822-1.475,3.299-3.299,3.299        c-1.317,0-2.455-0.77-2.981-1.885h3.585c0.423,0,0.763-0.342,0.763-0.761v-1.307c0-0.421-0.34-0.761-0.763-0.761h-3.585        C19.553,308.508,20.691,307.734,22.008,307.734"/>
						<path style="fill:#42758A;" d="M22.008,297.469c1.824,0,3.299,1.473,3.299,3.296c0,1.825-1.475,3.301-3.299,3.301        c-1.317,0-2.455-0.77-2.981-1.886h3.585c0.423,0,0.763-0.341,0.763-0.76v-1.307c0-0.419-0.34-0.762-0.763-0.762h-3.585        C19.553,298.235,20.691,297.469,22.008,297.469"/>
						<path style="fill:#42758A;" d="M22.008,287.194c1.824,0,3.299,1.478,3.299,3.299c0,1.824-1.475,3.303-3.299,3.303        c-1.317,0-2.455-0.771-2.981-1.886h3.585c0.423,0,0.763-0.341,0.763-0.763v-1.303c0-0.427-0.34-0.766-0.763-0.766h-3.585        C19.553,287.962,20.691,287.194,22.008,287.194"/>
						<path style="fill:#42758A;" d="M22.008,276.929c1.824,0,3.299,1.475,3.299,3.297c0,1.824-1.475,3.299-3.299,3.299        c-1.317,0-2.455-0.767-2.981-1.883h3.585c0.423,0,0.763-0.342,0.763-0.766v-1.301c0-0.425-0.34-0.764-0.763-0.764h-3.585        C19.553,277.697,20.691,276.929,22.008,276.929"/>
						<path style="fill:#42758A;" d="M19.027,443.132h3.585c0.423,0,0.763,0.34,0.763,0.761v1.304c0,0.423-0.34,0.769-0.763,0.769        h-3.585H14.34H6.755H0.76c-0.419,0-0.76-0.346-0.76-0.769v-1.304c0-0.422,0.341-0.761,0.76-0.761h5.995h7.585H19.027z"/>
						<path style="fill:#42758A;" d="M19.027,432.862h3.585c0.423,0,0.763,0.341,0.763,0.764v1.306c0,0.419-0.34,0.761-0.763,0.761        h-3.585H14.34H6.755H0.76c-0.419,0-0.76-0.342-0.76-0.761v-1.306c0-0.423,0.341-0.764,0.76-0.764h5.995h7.585H19.027z"/>
						<path style="fill:#42758A;" d="M19.027,422.591h3.585c0.423,0,0.763,0.34,0.763,0.761v1.308c0,0.414-0.34,0.758-0.763,0.758        h-3.585H14.34H6.755H0.76c-0.419,0-0.76-0.344-0.76-0.758v-1.308c0-0.422,0.341-0.761,0.76-0.761h5.995h7.585H19.027z"/>
						<path style="fill:#42758A;" d="M19.027,412.32h3.585c0.423,0,0.763,0.341,0.763,0.769v1.299c0,0.424-0.34,0.764-0.763,0.764        h-3.585H14.34H6.755H0.76c-0.419,0-0.76-0.34-0.76-0.764v-1.299c0-0.428,0.341-0.769,0.76-0.769h5.995h7.585H19.027z"/>
						<path style="fill:#42758A;" d="M19.027,402.054h3.585c0.423,0,0.763,0.339,0.763,0.76v1.303c0,0.423-0.34,0.766-0.763,0.766        h-3.585H14.34H6.755H0.76c-0.419,0-0.76-0.343-0.76-0.766v-1.303c0-0.422,0.341-0.76,0.76-0.76h5.995h7.585H19.027z"/>
						<path style="fill:#42758A;" d="M19.027,391.784h3.585c0.423,0,0.763,0.34,0.763,0.761v1.304c0,0.421-0.34,0.764-0.763,0.764        h-3.585H14.34H6.755H0.76c-0.419,0-0.76-0.343-0.76-0.764v-1.304c0-0.422,0.341-0.761,0.76-0.761h5.995h7.585H19.027z"/>
						<path style="fill:#42758A;" d="M19.027,381.511h3.585c0.423,0,0.763,0.341,0.763,0.761v1.306c0,0.422-0.34,0.761-0.763,0.761        h-3.585H14.34H6.755H0.76c-0.419,0-0.76-0.34-0.76-0.761v-1.306c0-0.42,0.341-0.761,0.76-0.761h5.995h7.585H19.027z"/>
						<path style="fill:#42758A;" d="M19.027,371.238h3.585c0.423,0,0.763,0.345,0.763,0.769v1.303c0,0.422-0.34,0.76-0.763,0.76        h-3.585H14.34H6.755H0.76c-0.419,0-0.76-0.339-0.76-0.76v-1.303c0-0.424,0.341-0.769,0.76-0.769h5.995h7.585H19.027z"/>
						<path style="fill:#42758A;" d="M19.027,360.974h3.585c0.423,0,0.763,0.339,0.763,0.759v1.307c0,0.419-0.34,0.761-0.763,0.761        h-3.585H14.34H6.755H0.76c-0.419,0-0.76-0.342-0.76-0.761v-1.307c0-0.421,0.341-0.759,0.76-0.759h5.995h7.585H19.027z"/>
						<path style="fill:#42758A;" d="M19.027,350.703h3.585c0.423,0,0.763,0.344,0.763,0.76v1.306c0,0.42-0.34,0.761-0.763,0.761        h-3.585H14.34H6.755H0.76c-0.419,0-0.76-0.341-0.76-0.761v-1.306c0-0.416,0.341-0.76,0.76-0.76h5.995h7.585H19.027z"/>
						<path style="fill:#42758A;" d="M19.027,340.433h3.585c0.423,0,0.763,0.34,0.763,0.759v1.308c0,0.419-0.34,0.763-0.763,0.763        h-3.585H14.34H6.755H0.76c-0.419,0-0.76-0.343-0.76-0.763v-1.308c0-0.419,0.341-0.759,0.76-0.759h5.995h7.585H19.027z"/>
						<path style="fill:#42758A;" d="M19.027,330.157h3.585c0.423,0,0.763,0.343,0.763,0.769v1.301c0,0.424-0.34,0.766-0.763,0.766        h-3.585H14.34H6.755H0.76c-0.419,0-0.76-0.342-0.76-0.766v-1.301c0-0.425,0.341-0.769,0.76-0.769h5.995h7.585H19.027z"/>
						<path style="fill:#42758A;" d="M19.027,319.894h3.585c0.423,0,0.763,0.337,0.763,0.759v1.306c0,0.419-0.34,0.765-0.763,0.765        h-3.585H14.34H6.755H0.76c-0.419,0-0.76-0.346-0.76-0.765v-1.306c0-0.422,0.341-0.759,0.76-0.759h5.995h7.585H19.027z"/>
						<path style="fill:#42758A;" d="M19.027,309.623h3.585c0.423,0,0.763,0.341,0.763,0.761v1.307c0,0.419-0.34,0.761-0.763,0.761        h-3.585H14.34H6.755H0.76c-0.419,0-0.76-0.342-0.76-0.761v-1.307c0-0.421,0.341-0.761,0.76-0.761h5.995h7.585H19.027z"/>
						<path style="fill:#42758A;" d="M19.027,299.35h3.585c0.423,0,0.763,0.343,0.763,0.762v1.307c0,0.419-0.34,0.76-0.763,0.76        h-3.585H14.34H6.755H0.76c-0.419,0-0.76-0.341-0.76-0.76v-1.307c0-0.419,0.341-0.762,0.76-0.762h5.995h7.585H19.027z"/>
						<path style="fill:#42758A;" d="M19.027,289.079h3.585c0.423,0,0.763,0.34,0.763,0.766v1.303c0,0.422-0.34,0.763-0.763,0.763        h-3.585H14.34H6.755H0.76c-0.419,0-0.76-0.341-0.76-0.763v-1.303c0-0.427,0.341-0.766,0.76-0.766h5.995h7.585H19.027z"/>
						<path style="fill:#42758A;" d="M19.027,278.811h3.585c0.423,0,0.763,0.339,0.763,0.764v1.301c0,0.424-0.34,0.766-0.763,0.766        h-3.585H14.34H6.755H0.76c-0.419,0-0.76-0.342-0.76-0.766v-1.301c0-0.425,0.341-0.764,0.76-0.764h5.995h7.585H19.027z"/>
					</g>
					<polygon style="fill:#7AB0C9;" points="166.684,424.846 166.684,456.593 134.937,456.593 145.932,434.841      "/>
					<polygon style="fill:#CCE5EF;" points="134.937,456.593 166.684,424.846 134.937,424.846      "/>
				</g>
			</g>
			<path style="fill:#42758A;" d="M115.252,432.161c0.263-0.513,0.285-1.082,0.057-1.597c-0.335-0.764-1.108-1.173-1.571-1.413     l-0.157-0.087c-3.685-2.149-7.875-5.133-11.003-10.975c-0.313-0.584-0.605-1.186-0.871-1.792l0,0     c-2.068-4.696-2.306-9.179-2.271-12.944c0.002-0.197-0.008-0.394-0.02-0.603c-0.008-0.133-0.015-0.27-0.015-0.392     c9.458-2.146,20.075-10.636,20.082-18.918l0.005-0.35c0.007-0.492,0.02-1.049-0.104-1.591c-0.585-2.578-2.224-4.357-4.617-5.04     c-2.827-0.806-6.599,0.007-9.606,2.072c-4.101,2.813-5.978,7.262-7.037,10.366c-1.089,3.185-1.776,5.808-2.163,8.252     c-0.065,0.432-0.089,0.852-0.109,1.22c-0.015,0.255-0.025,0.493-0.052,0.712c-7.373,1.074-14.889,0.162-22.359-2.716     c-9.007-3.466-15.028-8.425-19.529-16.077c-1.771-2.998-3.337-6.507-4.632-10.388c-1.089-3.247-1.845-6.631-2.186-9.787     c-0.634-5.854-0.068-11.218,1.633-15.508c0.035-0.084,0.086-0.177,0.141-0.283c0.302-0.566,0.808-1.517,0.358-2.544     c-0.098-0.222-0.232-0.426-0.402-0.607l-0.316-0.34l-0.461-0.047c-1.932-0.206-2.609,1.629-2.899,2.414l-0.099,0.267     c-1.042,2.589-1.717,5.445-1.942,8.26c-0.637,7.893,0.718,15.532,4.264,24.025c0.15,0.358,0.306,0.722,0.463,1.081     c2.001,4.552,4.357,8.411,7.001,11.472c4.894,5.672,11.159,9.659,19.705,12.552c6.836,2.315,13.89,3.066,20.992,2.233     c0.015,4.616,0.208,9.41,2.574,14.789c0.456,1.04,0.992,2.08,1.585,3.099c2.403,4.101,5.702,7.504,10.095,10.402l0.144,0.097     c1.473,1.001,2.999,1.886,4.186,1.586C114.614,432.935,115.018,432.616,115.252,432.161z M99.943,397.43     c0.431-2.797,1.044-5.243,1.887-7.477c1.228-3.251,2.716-6.593,6.197-8.64c1.609-0.945,3.994-1.656,5.684-1.108     c0.781,0.25,1.322,0.748,1.659,1.518c0.064,0.144,0.123,0.299,0.169,0.461c0.218,0.717,0.141,1.997-0.049,2.774     c-1.291,5.184-8.658,11.322-15.699,13.314c0.007-0.056,0.02-0.114,0.03-0.17C99.866,397.878,99.911,397.651,99.943,397.43z"/>
		</g>
		<g>
			<path style="fill:#F8FAFF;" d="M88.723,51.877c-1.375-0.795-3.287-0.293-4.083,1.071c-13.078,22.377-14.619,49.827-4.122,73.431     c0.458,1.022,1.474,1.71,2.587,1.76l0.144,0.003c0.415,0,0.821-0.084,1.206-0.257c0.73-0.323,1.288-0.913,1.575-1.657     c0.286-0.746,0.265-1.555-0.058-2.28c-9.721-21.852-8.293-47.265,3.82-67.986C90.623,54.543,90.145,52.71,88.723,51.877z      M83.245,127.482c0.003,0,0.003,0,0.004,0v0.022L83.245,127.482z"/>
			<path style="fill:#F8FAFF;" d="M222.152,50.312c-14.884-23.302-40.356-37.214-68.14-37.214c-9.825,0-19.452,1.786-28.613,5.301     c-5.054,1.935-9.954,4.412-14.564,7.362c-0.674,0.424-1.139,1.087-1.314,1.865c-0.173,0.779-0.032,1.576,0.397,2.254     c0.864,1.337,2.774,1.766,4.124,0.904c4.257-2.719,8.794-5.016,13.493-6.82c8.479-3.255,17.391-4.904,26.488-4.904     c25.731,0,49.32,12.884,63.096,34.466c17.967,28.129,14.919,65.15-7.43,90.041c-1.173,1.412-1.126,3.201,0.117,4.446     c0.513,0.515,1.22,0.807,1.948,0.807c0.559,0,1.388-0.171,2.166-1.003C238.264,120.944,241.649,80.848,222.152,50.312z"/>
		</g>
	</g>
	<g>
		<g>
			<rect x="56.632" y="107.963" style="fill-rule:evenodd;clip-rule:evenodd;fill:#42758A;" width="326.038" height="225.553"/>
			<g>
				<rect x="77.49" y="129.647" style="fill-rule:evenodd;clip-rule:evenodd;fill:#7AB0C9;" width="284.317" height="182.188"/>
				<g>
					<polygon style="fill-rule:evenodd;clip-rule:evenodd;fill:#F8FAFF;" points="272.563,227.687 249.046,247.999 193.46,198.291        102.597,280.603 327.082,280.603      "/>
					<path style="fill-rule:evenodd;clip-rule:evenodd;fill:#F8FAFF;" d="M275.772,181.724c0,11.217-9.096,20.31-20.309,20.31       c-11.22,0-20.311-9.094-20.311-20.31c0-11.218,9.091-20.314,20.311-20.314C266.676,161.41,275.772,170.506,275.772,181.724z"/>
				</g>
			</g>
		</g>
		<g>
			<g>
				<path style="fill-rule:evenodd;clip-rule:evenodd;fill:#FFAE24;" d="M334.215,226.284c8.488-0.43,17.877,2.19,24.654,5.285      c20.397,9.309,37.026,25.45,49.469,42.348c8.657,11.758,16.779,25.058,23.021,39.231c6.314,14.337,11.833,30.958,14.197,48.911      c5.315,40.265-7.427,71.859-28.32,90.632c-15.979,14.361-39.745,23.936-70.674,22.214c-8.705-0.482-17.434-1.963-25.547-4.109      c-30.093-7.943-56.171-24.767-77.004-44.468c-20.711-19.589-38.466-44.769-49.104-75.098      c-5.394-15.403-9.08-33.631-8.959-54.269c0.109-18.769,4.682-35.183,12.946-46.96c4.332-6.179,10.814-11.055,17.734-13.317      c8.744-2.852,18.289-1.948,25.783,1.074c7.089,2.849,12.03,7.628,17.267,13.193c4.872,5.176,9.488,10.939,16.367,14.187      c2.622,1.236,7.343,2.247,10.996,0.434c4.314-2.144,7.023-7.561,9.86-11.626c6.153-8.8,10.717-16.594,20.344-22.329      C321.663,228.982,327.101,226.642,334.215,226.284z M241.532,296.072c-3.13,6.52-0.459,16.726,1.572,21.496      c4.067,9.55,11.002,18.835,20.133,21.959c1.435,0.486,3.911,1.102,6.092,0.847c10.78-1.253,9.421-15.292,6.445-24.14      c-3.111-9.251-9.425-19.402-16.236-23.653c-2.44-1.515-6.376-3.045-10.14-2.362      C245.637,290.897,242.798,293.441,241.532,296.072z"/>
				<g>
					<path style="fill-rule:evenodd;clip-rule:evenodd;fill:#00AF92;" d="M336.698,286.927c5.135-0.711,9.168,1.327,12.099,3.789       c1.182,0.991,1.88,2.208,3.323,2.302c1.797,0.123,3.646-1.092,4.847-1.548c10.67-4.052,19.449,3.106,19.973,14.395       c0.29,6.205-2.27,11.675-6.119,14.853c-1.038,0.857-2.406,1.462-2.899,2.786c-1.032,2.767-0.117,6.79-0.057,10.973       c0.095,6.174-1.173,11.292-5.614,13.509c-5.968,2.981-13.55,0.237-17.218-4.118c-0.697-0.822-1.357-2.227-2.061-3.5       c-0.56-1.018-1.342-2.825-2.045-3.309c-1.71-1.178-5.355-0.5-8.009-1.329c-4.456-1.389-8.283-5.652-9.059-11.684       c-0.749-5.807-0.24-12.341,0.476-18.191c0.791-6.45,1.659-11.125,4.429-14.583C330.348,289.294,332.87,287.457,336.698,286.927       z"/>
					<path style="fill-rule:evenodd;clip-rule:evenodd;fill:#FF4E4E;" d="M417.82,400.25c1.671,6.792,4.166,13.533,1.299,19.807       c-1.978,4.33-7.809,8.863-14.641,6.545c-6.151-2.082-10.566-8.599-10.485-17.864c0.02-1.846,0.595-3.937,0.115-5.683       c-0.655-2.377-3.768-3.782-5.38-5.802c-6.104-7.65-2.837-20.847,9.236-21.055c1.158-1.824,1.613-3.896,2.768-5.616       c2.992-4.47,8.794-8.522,15.076-9.406c11.235-1.588,18.284,6.265,18.902,15.77c0.419,6.496-1.977,11.134-4.99,14.8       C426.5,395.665,422.007,397.515,417.82,400.25z"/>
					<path style="fill-rule:evenodd;clip-rule:evenodd;fill:#F8FAFF;" d="M276.338,396.141c-5.825,1.041-10.373,3.006-15.043,0.34       c-5.443-3.116-6.562-10.925-5.999-15.333c0.719-5.674,4.723-12.568,9.922-16.717c9.481-7.574,18.128-5.953,25.776-3.018       c2.109,0.807,4.367,1.885,6.721,1.85c2.869-0.04,5.566-1.257,8.166-2.087c8.04-2.557,15.998-1.759,22.154,5.808       c4.703,5.779,3.629,15.768,0.16,20.863c-3.806,5.596-11.628,6.837-16.852,4.754c-1.076-0.425-1.948-1.363-2.786-1.087       c-1.59,0.528-3.194,4.2-4.008,5.892c-1.746,3.64-2.711,6.805-5.978,9.73c-5.611,5.025-14.809,3.154-18.939-2.732       C277.639,401.564,277.595,399.082,276.338,396.141z"/>
					<path style="fill-rule:evenodd;clip-rule:evenodd;fill:#7AB0C9;" d="M344.835,452.66c-8.263-1.289-11.972-10.405-6.52-18.021       c1.245-1.738,3.368-3.03,4.015-4.697c0.603-1.561,0.113-2.981-0.098-4.183c-0.658-3.768-2.76-9.461-0.145-13.687       c4.952-7.995,17.451-5.579,21.333,2.014c1.987,3.878,1.794,9.411-1.404,14.199c-0.896,1.349-1.91,2.701-3.247,4.144       c-1.322,1.42-2.615,2.481-3.125,4.376c-0.798,2.941,0.72,5.472-0.445,9.158C353.7,450.711,349.498,453.39,344.835,452.66z"/>
				</g>
			</g>
			<g>
				<g>
					<g>
						<path style="fill:#42758A;" d="M155.889,360.414c-1.256-1.2-2.522-2.508-3.585-3.427c-0.365-0.319-0.849-0.925-1.415-0.798        c-0.027,0.035-0.052,0.067-0.079,0.098c0.895,3.649,2.356,7.405,3.825,12l5.665,1.195v-4.845        C158.813,363.205,157.34,361.792,155.889,360.414z"/>
						<path style="fill:#FFAE24;" d="M154.636,368.287c0.058,0.176,0.11,0.347,0.17,0.525c0.914,2.908,1.845,5.964,2.852,8.974        c0.337,1.006,0.68,2.624,1.074,3.033c0.425,0.44,3.06,1.71,3.472,1.772c1.166,0.175,3.343-1.079,4.526-1.787        c0.605-0.357,1.267-0.865,2.185-1.585c0.692-0.542,1.823-1.247,2.138-1.929c0.268-0.583-0.317-2.652-0.751-3.248        c-0.531-0.733-1.652-1.481-2.468-2.248c-2.512-2.34-5.039-4.765-7.531-7.156L154.636,368.287z"/>
					</g>
					<g>
						<path style="fill-rule:evenodd;clip-rule:evenodd;fill:#00AF92;" d="M162.072,381.549c0.397-0.955,0.431-1.87,0.972-2.843        c0.962,0.182,1.969,0.739,2.939,1.049c0.482-0.703,0.066-2.059,0.687-3.076c0.94,0.257,1.872,0.475,2.822,0.8        c0.511-1.125-0.126-2.553,0.635-3.419c1.337,1.222,2.016,2.955,2.924,4.48c13.539,22.858,27.547,45.962,41.035,68.927        c-5.366-3.035-11.242-1.569-11.152,6.635c-0.466-0.459-0.976-1.254-1.483-2.102c-13.002-21.839-26.54-44.304-39.753-66.359        c-0.985-1.637-2.15-3.314-2.887-4.923C159.578,380.122,161.074,381.357,162.072,381.549z"/>
						<path style="fill-rule:evenodd;clip-rule:evenodd;fill:#F8FAFF;" d="M202.843,454.029c3.565-3.176,7.374-4.383,11.066-6.539        c1.257,1.934,1.825,5.044,0.543,7.316C211.801,459.498,205.419,459.016,202.843,454.029z"/>
						<path style="fill-rule:evenodd;clip-rule:evenodd;fill:#42758A;" d="M207.622,436.301c0.305,0.983,1.02,1.652,2.219,2.362        c0.3,0.52,0.109,1.101,0.288,1.634c1.567,0.558,1.123,2.081,1.671,2.876c0.243,0.356,0.697,0.524,0.896,0.857        c0.353,0.588,0.215,1.168,0.482,1.791c0.243,0.57,0.872,0.822,0.881,1.473c-1.7,1.644-3.833,2.481-5.725,3.513        c-1.96,1.065-3.653,2.499-5.746,3.337c-1.588-0.67-1.589-2.238-2.25-3.327c-0.363-0.596-1.048-0.988-1.427-1.585        c-0.583-0.923-0.273-2.321-2.059-3.177c-0.224-0.883,0.152-1.838-0.589-2.652c0.012-0.136,0.021-0.265,0.153-0.197        C200.143,440.805,203.86,438.359,207.622,436.301z"/>
					</g>
				</g>
				<g>
					<path style="fill:#42758A;" d="M220.07,337.99c3.557-3.497,4.439-6.908,3.918-10.701c-0.547-3.882-2.302-6.482-5.045-10.269       c-3.388-4.677,0.952-9.447,0.952-9.447c-6.711,2.403-13.689,12.512-10.285,23.058c1.208,3.739,4.582,6.982,8.401,7.92       c0.36,0.092,0.738,0.157,1.091,0.067C219.479,338.516,219.789,338.258,220.07,337.99"/>
					<path style="fill:#FF4E4E;" d="M237.452,495.866l-10.025-122.722c-0.099-1.597-1.435-2.479-3.03-2.352l-6.719,0.481       c-1.646,0.129-2.357,1.518-2.139,3.154l16.144,121.983c0.197,1.431,1.415,2.492,2.859,2.49l0.056,0.003       C236.245,498.902,237.555,497.511,237.452,495.866"/>
					<path style="fill:#FFFFFF;" d="M227.898,374.773l-6.021-38.938c-2.019,2.068-5.736,2.329-8.072,0.636l1.456,39.754       C216.56,379.581,227.283,379.674,227.898,374.773"/>
				</g>
			</g>
			<g>
				<g>
					<path style="fill-rule:evenodd;clip-rule:evenodd;fill:#FFFFFF;" d="M406.612,297.238c2.119,2.058,3.409,5.062,4.946,7.674       c1.587,2.697,3.653,5.122,4.179,7.865c-3.393,2.749-7.371,4.878-11.637,7.414c-1.373,0.817-2.924,1.831-3.77,1.597       c-0.936-0.258-1.88-2.022-2.751-3.478c-1.436-2.393-3.019-5.151-4.677-7.906c-1.032-1.714-2.419-3.285-1.411-4.636       c0.688-0.915,2.75-1.7,3.831-2.348c1.436-0.862,2.768-1.722,3.824-2.35C401.568,299.635,403.99,297.896,406.612,297.238z"/>
					<path style="fill-rule:evenodd;clip-rule:evenodd;fill:#FF4E4E;" d="M487.723,229.983c0.659,0.849,1.274,1.729,1.875,2.629       l-0.133,1.349l1.333,0.513c0.826,1.321,1.631,2.667,2.445,4.014l0.072,1.499l1.127,0.471c0.992,1.611,1.994,3.232,3.001,4.86       l-0.085,1.394l1.301,0.571c0.54,0.873,1.081,1.747,1.622,2.623c0,0-0.541,1.263-0.359,1.557       c0.228,0.369,1.589,0.435,1.589,0.435c0.729,1.183,1.456,2.368,2.181,3.553c0,0-0.201,0.99-0.006,1.31       c0.214,0.351,1.232,0.702,1.232,0.702c0.563,0.926,1.122,1.851,1.679,2.776c0,0-0.318,0.949-0.118,1.281       c0.203,0.339,1.324,0.732,1.324,0.732c0.475,0.796,0.939,1.589,1.407,2.383l-0.177,1.296l1.353,0.712       c0.546,0.936,1.086,1.871,1.616,2.801c-0.751,0.718-1.643,1.259-2.583,1.739l-1.556-0.234l-0.575,1.249       c-0.316,0.15-0.63,0.302-0.939,0.462c-20.841,10.77-43.177,22.379-64.048,33.216c-5.297,2.751-11.612,5.927-17.538,8.972       c-3.032,1.558-4.944,2.859-7.329,2.083c-3.446-1.126-5.125-5.435-7.259-8.729c-3.037-4.706-9.752-12.698-6.531-16.602       c1.249-1.508,3.448-2.723,5.348-4.119c24.675-18.144,49.242-35.879,73.557-53.997c0.126-0.094,0.251-0.189,0.375-0.286       l1.542-0.25l0.377-1.289C485.727,230.977,486.649,230.361,487.723,229.983z"/>
					<path style="fill-rule:evenodd;clip-rule:evenodd;fill:#FFFFFF;" d="M509.415,271.184c-0.68-1.073-1.59-2.204-1.842-3.08       c0.746-0.639,1.847-1.013,2.809-1.459c-0.389-0.669-0.781-1.338-1.175-2.009c-0.961,0.589-1.935,1.341-2.863,1.485       c-0.629-0.801-1.346-1.613-1.327-2.368c0.738-0.487,1.822-0.952,2.777-1.508c-0.399-0.67-0.804-1.341-1.208-2.012       c-0.995,0.752-2.001,1.655-2.94,1.659c-0.662-0.889-1.189-1.77-1.557-2.636c0.69-0.441,1.857-1.088,2.823-1.796       c-0.408-0.672-0.818-1.344-1.229-2.016c-0.975,0.823-2.011,1.869-2.96,1.948c-0.459-1.252-1.785-2.568-2.101-3.809       c0.613-0.505,1.82-1.068,2.883-1.688c-0.409-0.663-0.816-1.326-1.226-1.988c-1.026,0.761-2.09,1.678-2.909,1.945       c-0.43-0.955-1.556-1.964-1.541-2.887c0.58-0.472,1.864-1.017,2.827-1.684c-0.406-0.656-0.809-1.309-1.214-1.963       c-0.999,0.679-2.021,1.656-2.979,1.783c-0.94-1.667-2.446-3.374-2.887-5.001c0.732-0.432,1.955-1.003,2.864-1.644       c-0.14-0.227-0.282-0.457-0.421-0.684c-0.263-0.427-0.518-0.856-0.777-1.284c-0.948,0.624-1.99,1.596-2.918,1.882       c-0.956-1.289-1.699-2.565-2.35-3.828c0.779-0.741,2.008-1.399,2.823-2.068c-0.392-0.628-0.792-1.25-1.2-1.862       c-0.891,0.558-1.897,1.56-2.853,1.946c-0.711-0.914-1.319-1.908-1.902-2.895c-0.644,0.498-1.271,1.028-1.921,1.533       c0.43,0.631,0.858,1.267,1.265,1.924c5.773,9.358,11.663,19.017,17.344,28.118c1.898,3.035,3.701,6.151,5.757,8.962       C507.999,271.864,508.719,271.539,509.415,271.184z"/>
				</g>
				<g>
					<path style="fill-rule:evenodd;clip-rule:evenodd;fill:#FFFFFF;" d="M367.183,131.813c-1.883,2.278-4.773,3.803-7.251,5.545       c-2.562,1.799-4.813,4.052-7.504,4.795c-3.014-3.161-5.456-6.956-8.327-11.003c-0.923-1.302-2.056-2.766-1.892-3.628       c0.181-0.955,1.865-2.038,3.247-3.024c2.27-1.622,4.893-3.421,7.503-5.293c1.627-1.167,3.083-2.676,4.51-1.781       c0.965,0.614,1.916,2.608,2.647,3.631c0.976,1.365,1.939,2.621,2.648,3.623C364.388,126.979,366.317,129.251,367.183,131.813z"/>
					<path style="fill-rule:evenodd;clip-rule:evenodd;fill:#FF4E4E;" d="M440.727,207.266c-0.791,0.724-1.624,1.412-2.471,2.081       l-1.257-0.122l-0.501,1.467c-1.249,0.927-2.529,1.838-3.805,2.754l-1.273-0.048l-0.595,1.405       c-1.525,1.117-3.058,2.245-4.598,3.378c0,0-0.863,0.191-1.186,0.428c-0.298,0.219-0.678,0.943-0.678,0.943       c-0.829,0.61-1.659,1.221-2.49,1.831c0,0-0.815-0.013-1.148,0.231c-0.293,0.215-0.73,1.147-0.73,1.147       c-1.119,0.82-2.239,1.639-3.36,2.454c0,0-0.921-0.189-1.276,0.069c-0.283,0.205-0.638,1.32-0.638,1.32       c-0.878,0.635-1.755,1.267-2.632,1.895l-1.186,0.22l-0.721,1.141c-0.755,0.537-1.51,1.07-2.264,1.599       c0,0-1.046,0.06-1.386,0.298c-0.296,0.206-0.521,1.035-0.521,1.035c-0.891,0.619-1.781,1.232-2.669,1.837       c-0.776-0.69-1.386-1.535-1.94-2.432c0,0,0.014-1.067-0.167-1.384c-0.21-0.367-1.016-0.658-1.016-0.658       c-0.175-0.304-0.354-0.606-0.539-0.902c-12.406-19.908-25.77-41.243-38.246-61.176c-3.167-5.059-6.838-11.099-10.349-16.76       c-1.797-2.898-3.249-4.699-2.663-7.138c0.844-3.526,5.003-5.546,8.118-7.936c4.445-3.407,11.875-10.742,16.024-7.843       c1.602,1.122,2.988,3.22,4.535,5.001c20.065,23.14,39.714,46.204,59.724,68.991c0.104,0.118,0.209,0.235,0.315,0.35       c0,0-0.462,1.334-0.178,1.63c0.29,0.302,1.864,0.16,1.864,0.16C439.568,205.353,440.268,206.235,440.727,207.266z"/>
					<path style="fill-rule:evenodd;clip-rule:evenodd;fill:#FFFFFF;" d="M436.088,206.658c0.854-0.78,1.796-1.465,2.733-2.125       c-0.548-0.602-1.128-1.185-1.684-1.792c-0.594,0.479-1.193,0.956-1.816,1.413c-8.862,6.504-18.02,13.154-26.635,19.545       c-2.875,2.134-5.834,4.182-8.47,6.458c0.393,0.681,0.774,1.372,1.183,2.037c1.015-0.764,2.07-1.761,2.923-2.082       c0.696,0.691,1.158,1.759,1.679,2.682c0.635-0.441,1.271-0.885,1.907-1.332c-0.664-0.911-1.491-1.822-1.707-2.736       c0.744-0.692,1.498-1.47,2.25-1.511c0.545,0.696,1.096,1.739,1.727,2.647c0.636-0.452,1.272-0.909,1.909-1.365       c-0.829-0.931-1.811-1.862-1.89-2.797c0.834-0.729,1.669-1.329,2.502-1.763c0.496,0.652,1.235,1.763,2.018,2.668       c0.637-0.461,1.274-0.923,1.911-1.386c-0.899-0.906-2.024-1.855-2.178-2.796c1.212-0.556,2.417-1.983,3.628-2.397       c0.552,0.57,1.21,1.728,1.912,2.738c0.629-0.461,1.256-0.92,1.884-1.381c-0.841-0.962-1.84-1.948-2.172-2.744       c0.917-0.506,1.835-1.706,2.754-1.766c0.517,0.541,1.163,1.776,1.904,2.682c0.622-0.458,1.24-0.913,1.86-1.369       c-0.756-0.942-1.812-1.883-2.016-2.827c1.585-1.07,3.166-2.708,4.751-3.276c0.491,0.693,1.158,1.865,1.87,2.721       c0.215-0.158,0.433-0.318,0.647-0.475c0.405-0.296,0.811-0.585,1.218-0.877c-0.698-0.895-1.751-1.856-2.11-2.759       c1.209-1.054,2.422-1.898,3.628-2.647c0.801,0.717,1.556,1.888,2.288,2.647c0.594-0.441,1.181-0.889,1.758-1.345       C437.628,208.504,436.55,207.581,436.088,206.658z"/>
				</g>
			</g>
		</g>
		<g>
			<g>
				<g>
					<path style="fill-rule:evenodd;clip-rule:evenodd;fill:#FFAE24;" d="M210.861,95.489c0-31.832-25.803-57.634-57.635-57.634       c-31.829,0-57.634,25.802-57.634,57.634c0,21.015,11.25,39.398,28.054,49.464v22.584c0,4.888,3.966,8.856,8.853,8.856h42.317       c4.89,0,8.855-3.968,8.855-8.856v-23.112C199.994,134.25,210.861,116.141,210.861,95.489z"/>
					<path style="fill-rule:evenodd;clip-rule:evenodd;fill:#42758A;" d="M165.203,120.524c-0.016,14.872,0.056,42.076,0.247,57.582       c0.01,0.887,0.074,2.149,0.037,3.389c-0.04,1.396,0.203,2.61-0.921,3.274c-0.234,0.134-1.357,0.217-1.814-0.129       c-1.3-0.967-0.814-4.977-0.833-6.68c-0.186-15.331-0.144-42.106-0.238-57.371c-5.352-0.537-10.687-0.133-16.037-0.385       c0.007,15.491,0.477,40.789,0.674,56.811c0.02,1.728,0.792,5.599-0.67,6.663c-0.468,0.347-1.428,0.33-1.924-0.019       c-0.985-0.706-0.878-2.362-0.893-3.399c-0.188-15.756-0.588-40.973-0.779-56.708c-0.007-0.784,0.222-3.113,0.064-3.278       c-0.264-0.289-3.65-0.003-4.484-0.05c-3.311-0.177-7.351-1.034-10.403-3.606c-5.664-4.761-6.036-12.302-2.563-16.97       c4.217-5.668,12.706-5.622,17.958,0.619c4.136,4.909,2.946,10.687,3.082,16.442c5.203,0.073,10.403,0.118,15.605,0.172       c-0.246-2.629-0.296-5.664,0-8.582c0.098-0.939,0.083-1.993,0.29-2.853c1.965-8.191,12.21-12.656,18.717-6.998       c0.04,0.035,0.073,0.074,0.105,0.111c5.341,5.329,5.355,13.713-0.626,18.628C175.19,120.975,170.089,120.397,165.203,120.524z        M178.997,112.623c2.465-3.157,2.425-8.472-0.779-11.442c-2.867-2.651-7.053-2.109-9.721,0c-3.76,2.965-3.355,6.502-3.52,9.705       c-0.114,2.249-0.019,4.484,0.394,6.035C169.578,117.156,175.342,117.301,178.997,112.623z M130.965,99.188       c-1.581,0.492-3.905,2.869-4.433,4.398c-0.824,2.37-0.36,6.302,1.599,8.698c3.088,3.776,7.323,4.316,10.734,4.354       c0.97,0.01,2.761,0.317,3.102-0.073c0.025-0.034,0.061-2.166,0.071-3.073c0.01-1.277,0.005-2.497-0.04-3.176       c-0.24-3.461-0.479-6.693-3.529-9.146C135.983,99.173,133.122,98.512,130.965,99.188z"/>
				</g>
				<g>
					<path style="fill:#F8FAFF;" d="M120.873,135.542c-1.52,0-3.04-0.567-4.223-1.709c-6.504-6.302-11.313-14.195-13.911-22.824       c-0.963-3.21,0.857-6.599,4.071-7.56c3.211-0.97,6.592,0.854,7.554,4.065c2.004,6.653,5.714,12.737,10.733,17.599       c2.411,2.335,2.468,6.174,0.134,8.584C124.043,134.923,122.458,135.542,120.873,135.542z"/>
					<path style="fill:#F8FAFF;" d="M106.572,101.77c-3.35,0-6.071-2.715-6.071-6.067c0-18.686,9.54-35.651,25.521-45.379       c2.862-1.741,6.599-0.834,8.34,2.031c1.741,2.863,0.833,6.597-2.03,8.337c-12.331,7.509-19.69,20.596-19.69,35.011       C112.642,99.054,109.92,101.77,106.572,101.77z"/>
				</g>
			</g>
			<path style="fill-rule:evenodd;clip-rule:evenodd;fill:#42758A;" d="M177.561,181.772v-2.462c0-1.719-1.391-3.113-3.112-3.113     h-40.688c-1.718,0-3.112,1.394-3.112,3.113v2.462c0,1.72,1.394,3.11,3.112,3.11c-1.718,0-3.112,1.395-3.112,3.115v2.465     c0,1.717,1.394,3.11,3.112,3.11c-1.718,0-3.112,1.391-3.112,3.111v2.464c0,1.72,1.394,3.117,3.112,3.117h8.15     c0.04,6.218,5.086,11.249,11.314,11.249c6.226,0,11.276-5.031,11.316-11.249h9.907c1.721,0,3.112-1.397,3.112-3.117v-2.464     c0-1.72-1.391-3.111-3.112-3.111c1.721,0,3.112-1.393,3.112-3.11v-2.465c0-1.72-1.391-3.115-3.112-3.115     C176.17,184.882,177.561,183.492,177.561,181.772z"/>
		</g>
	</g>
</g>















</svg>
