<?xml version="1.0" encoding="UTF-8"?>
<!-- Generator: Adobe Illustrator 25.2.1, SVG Export Plug-In . SVG Version: 6.00 Build 0)  -->
<svg xmlns="http://www.w3.org/2000/svg" xmlns:xlink="http://www.w3.org/1999/xlink" version="1.1" id="Capa_1" x="0px" y="0px" viewBox="0 0 512 512" style="enable-background:new 0 0 512 512;" xml:space="preserve" width="512" height="512">
<g>
	<g>
		<g>
			<path style="fill:#FF4E4E;" d="M128.451,417.214l22.316-4.647c0.149-1.21,0.273-2.426,0.37-3.669     c0.201-2.9,0.231-5.774,0.12-8.617l-21.848-6.41c-0.252-1.355-0.566-2.676-0.91-3.993l16.996-15.164     c-1.605-3.797-3.505-7.446-5.704-10.895l-22.153,5.383c-0.884-1.038-1.807-2.025-2.769-2.99l7.139-21.65     c-3.258-2.469-6.729-4.687-10.386-6.583l-16.497,15.724c-1.276-0.445-2.579-0.85-3.897-1.206l-4.635-22.321     c-1.217-0.136-2.438-0.262-3.676-0.357c-2.904-0.221-5.778-0.24-8.617-0.127l-6.419,21.85c-1.343,0.249-2.676,0.56-3.977,0.907     l-15.171-17.005c-3.798,1.61-7.445,3.524-10.9,5.71l5.381,22.162c-1.038,0.878-2.025,1.808-2.989,2.762l-21.645-7.143     c-2.473,3.264-4.678,6.729-6.588,10.383l15.734,16.503c-0.452,1.279-0.856,2.578-1.211,3.895l-22.319,4.638     c-0.15,1.214-0.272,2.442-0.364,3.666c-0.21,2.912-0.236,5.782-0.119,8.625l21.855,6.416c0.246,1.341,0.549,2.669,0.902,3.979     L9.467,432.212c1.609,3.796,3.51,7.447,5.709,10.895l22.155-5.375c0.883,1.029,1.809,2.019,2.765,2.985l-7.137,21.648     c3.258,2.461,6.724,4.674,10.381,6.594l16.499-15.742c1.278,0.454,2.573,0.852,3.897,1.214l4.638,22.308     c1.214,0.151,2.436,0.281,3.675,0.368c2.901,0.221,5.776,0.239,8.622,0.122l6.416-21.845c1.349-0.251,2.666-0.56,3.982-0.905     l15.166,17.002c3.8-1.614,7.439-3.516,10.899-5.717l-5.382-22.158c1.031-0.876,2.024-1.807,2.984-2.763l21.65,7.148     c2.47-3.255,4.676-6.731,6.595-10.383l-15.742-16.506C127.687,419.828,128.096,418.531,128.451,417.214 M74.298,446.607     c-23.841-1.753-41.729-22.489-39.963-46.335c1.756-23.817,22.503-41.718,46.32-39.956c23.85,1.753,41.736,22.498,39.987,46.326     C118.875,430.484,98.126,448.374,74.298,446.607"/>
			<g>
				<path style="fill:#7AB0C9;" d="M424.208,202.009v188.219c0,0.772-0.061,1.522-0.188,2.26c-0.229,1.62-0.68,3.157-1.355,4.582      c-2.07,0.968-4.36,1.521-6.808,1.521H107.916c-8.902,0-16.136-7.237-16.136-16.144V194.232c0-2.454,0.551-4.745,1.552-6.805      c1.42-0.68,2.936-1.134,4.553-1.358c0.738-0.132,1.481-0.191,2.259-0.191h307.935      C416.983,185.878,424.208,193.104,424.208,202.009z"/>
				<rect x="158.145" y="216.725" style="fill:#42758A;" width="244.512" height="154.887"/>
				<g>
					<rect x="105.438" y="216.725" style="fill:#F8FAFF;" width="44.096" height="19.897"/>
					<rect x="105.438" y="241.538" style="fill:#F8FAFF;" width="44.096" height="19.901"/>
				</g>
				<rect x="105.438" y="325.617" style="fill:#F8FAFF;" width="44.096" height="19.9"/>
				<rect x="105.438" y="350.437" style="fill:#F8FAFF;" width="44.096" height="19.902"/>
				<g>
					<path style="fill:#F8FAFF;" d="M151.623,296.736c0,13.33-10.809,24.143-24.138,24.143c-13.326,0-24.138-10.813-24.138-24.143       c0-13.335,10.812-24.136,24.138-24.136C140.814,272.601,151.623,283.402,151.623,296.736z"/>
					<path style="fill:#7AB0C9;" d="M141.469,296.732c0,7.732-6.261,13.987-13.984,13.987c-7.721,0-13.982-6.255-13.982-13.987       c0-7.718,6.261-13.978,13.982-13.978C135.208,282.754,141.469,289.013,141.469,296.732z"/>
				</g>
			</g>
		</g>
		<g>
			<g>
				<g>
					<path style="fill:#42758A;" d="M377.503,426.055l15.224,6.359l1.361,0.549c0.106,0.101,0.196,0.197,0.267,0.326       c0.391,0.655,0.391,1.436,0,2.091c-0.072,0.129-0.161,0.223-0.267,0.322l-16.585,6.914c-0.783,0.745-1.989,0.745-2.737,0       l-6.91-6.914c-0.753-0.746-0.753-1.987,0-2.739l6.91-6.908C375.513,425.304,376.72,425.304,377.503,426.055z"/>
					<path style="fill:#42758A;" d="M377.503,426.055l15.224,6.359l-2.156,0.875l-4.948,2.091l-8.119,3.388       c-0.783,0.748-1.989,0.748-2.737,0l-6.36-6.354l6.36-6.359C375.513,425.304,376.72,425.304,377.503,426.055z"/>
				</g>
				<path style="fill:#42758A;" d="M178.874,426.823c2.587,0,4.675,3.363,4.675,7.514c0,4.146-2.087,7.509-4.675,7.509      c-2.58,0-4.667-3.363-4.667-7.509C174.208,430.186,176.294,426.823,178.874,426.823z"/>
				<g>
					<path style="fill:#42758A;" d="M180.847,426.823l194.067,1.097c1.275,0,1.932-0.724,1.932-0.724v14.279       c0,1.27-1.006,2.279-2.281,2.279H179.537c-1.272,0-2.28-1.01-2.28-2.279v-14.279       C177.257,427.196,179.575,426.823,180.847,426.823z"/>
					<path style="fill:#7AB0C9;" d="M179.537,424.881h195.028c1.275,0,2.281,1.043,2.281,2.315v10.431       c0,1.272-1.006,2.279-2.281,2.279H179.537c-1.272,0-2.28-1.007-2.28-2.279v-10.431       C177.257,425.924,178.264,424.881,179.537,424.881z"/>
				</g>
				<g>
					<path style="fill:#42758A;" d="M352.9,430.477c2.127,0,3.856,1.723,3.856,3.86l0,0c0,2.128-1.729,3.854-3.856,3.854h-52.592       c-2.133,0-3.862-1.726-3.862-3.854l0,0c0-2.136,1.729-3.86,3.862-3.86H352.9z"/>
					<path style="fill:#F8FAFF;" d="M352.9,428.535c2.127,0,3.856,1.726,3.856,3.857l0,0c0,2.128-1.729,3.857-3.856,3.857h-52.592       c-2.133,0-3.862-1.729-3.862-3.857l0,0c0-2.132,1.729-3.857,3.862-3.857H352.9z"/>
				</g>
			</g>
			<path style="fill:#E3F6FC;" d="M272.787,213.944l-9.554-7.255c0.131-0.704,0.242-1.42,0.312-2.125l11.207-4.281     c-0.081-2.172-0.341-4.32-0.783-6.431l-11.906-1.499c-0.241-0.673-0.502-1.34-0.795-1.993l7.569-9.315     c-1.143-1.824-2.439-3.555-3.879-5.187l-11.06,4.652c-0.539-0.464-1.111-0.905-1.694-1.327l1.893-11.842     c-0.953-0.499-1.919-0.973-2.922-1.406c-1.004-0.429-2.017-0.801-3.038-1.142l-7.249,9.56c-0.71-0.134-1.418-0.241-2.126-0.316     l-4.28-11.21c-2.174,0.082-4.324,0.35-6.432,0.785l-1.506,11.906c-0.676,0.24-1.338,0.507-1.988,0.8l-9.312-7.572     c-1.825,1.143-3.564,2.44-5.189,3.879l4.647,11.061c-0.461,0.546-0.896,1.109-1.32,1.701l-11.844-1.9     c-0.499,0.948-0.976,1.919-1.406,2.92c-0.427,1.006-0.799,2.021-1.141,3.039l9.555,7.249c-0.129,0.709-0.241,1.418-0.311,2.127     l-11.208,4.28c0.081,2.177,0.347,4.324,0.78,6.433l11.911,1.498c0.236,0.677,0.506,1.342,0.795,1.994l-7.568,9.314     c1.14,1.828,2.433,3.564,3.879,5.184l11.06-4.645c0.541,0.458,1.11,0.898,1.692,1.32l-1.896,11.839     c0.954,0.503,1.922,0.979,2.923,1.408c1.005,0.428,2.022,0.798,3.04,1.139l7.249-9.554c0.712,0.131,1.415,0.242,2.128,0.314     l4.282,11.21c2.172-0.082,4.318-0.345,6.426-0.782l1.508-11.907c0.669-0.243,1.332-0.51,1.986-0.796l9.314,7.563     c1.828-1.14,3.564-2.431,5.189-3.877l-4.65-11.057c0.455-0.542,0.895-1.112,1.325-1.697l11.837,1.893     c0.5-0.942,0.98-1.914,1.407-2.919C272.074,215.976,272.449,214.96,272.787,213.944 M249.72,207.609     c-3.263,7.636-12.101,11.182-19.744,7.915c-7.637-3.265-11.184-12.105-7.918-19.744c3.267-7.641,12.103-11.182,19.741-7.919     C249.443,191.128,252.988,199.965,249.72,207.609"/>
			<g>
				<g>
					<path style="fill:#F8FAFF;" d="M184.049,92.334c-9.394-21.337-26.098-38.542-47.039-48.439       c-12.728-6.016-26.87-9.194-40.903-9.194c-8.562,0-17.074,1.155-25.299,3.433c-1.431,0.395-2.277,1.889-1.883,3.329       c0.382,1.408,1.9,2.287,3.309,1.899c7.682-2.129,15.621-3.207,23.598-3.207c36.057,0,68.749,21.344,83.286,54.376       c12.262,27.854,9.957,59.955-6.154,85.854c-0.642,0.957-0.714,2.114-0.191,3.092c0.468,0.878,1.329,1.423,2.244,1.423       c0.551,0,1.616-0.212,2.525-1.649C194.596,155.807,197.028,121.82,184.049,92.334z"/>
					<path style="fill:#F8FAFF;" d="M79.707,221.636c-29.51-5.538-54.368-25.289-66.492-52.839       c-6.96-15.807-9.341-33.162-6.892-50.19c0.215-1.479-0.807-2.857-2.277-3.07c-1.499-0.229-2.845,0.839-3.053,2.294       c-2.597,18.036-0.077,36.421,7.29,53.167c12.889,29.271,39.313,50.209,70.719,56.017c0.3,0.041,0.579,0.06,0.844,0.06       c2.06,0,3.086-1.139,3.184-2.265C83.138,223.585,82.144,222.071,79.707,221.636z"/>
					<path style="fill:#F8FAFF;" d="M28.44,119.452c-1.491-0.217-2.852,0.835-3.062,2.287c-3.406,22.939,4.37,46.264,20.807,62.392       c0.504,0.495,1.17,0.767,1.879,0.767l0,0c0.306,0,0.605-0.049,0.891-0.149c0.39-0.142,0.752-0.373,1.041-0.673       c1.035-1.072,1.012-2.79-0.049-3.836c-15.197-14.905-22.389-36.476-19.242-57.701C30.928,121.061,29.912,119.68,28.44,119.452z       "/>
					<path style="fill:#F8FAFF;" d="M10.127,106.378c0.195,0.041,0.388,0.06,0.579,0.06c1.372,0,2.563-0.981,2.833-2.332       c4.622-22.96,20.079-42.43,41.35-52.088c1.45-0.657,2.098-2.385,1.445-3.843c-0.627-1.424-2.399-2.114-3.826-1.466       C29.547,57.133,12.858,78.156,7.87,102.948c-0.219,1.084,0.185,2.184,1.055,2.873C9.285,106.102,9.689,106.287,10.127,106.378z       "/>
					<path style="fill:#F8FAFF;" d="M137.85,73.825c-12.183-8.806-26.597-13.46-41.682-13.46c-18.146,0-35.403,6.784-48.594,19.099       c-3.518,3.283-6.741,6.973-9.577,10.963c-0.871,1.209-0.597,2.907,0.615,3.782c1.168,0.843,2.932,0.546,3.765-0.626       c2.611-3.677,5.593-7.09,8.86-10.143C63.436,72.054,79.392,65.784,96.17,65.784c13.949,0,27.273,4.304,38.537,12.448       c24.053,17.39,33.732,49.133,23.531,77.221c-0.506,1.586,0.131,3.073,1.586,3.702c0.307,0.134,0.648,0.204,0.987,0.204       c1.08,0,1.978-0.654,2.404-1.757C174.421,127.173,163.99,92.723,137.85,73.825z"/>
				</g>
				<g>
					<g>
						<g>
							<path style="fill-rule:evenodd;clip-rule:evenodd;fill:#FFAE24;" d="M147.784,135.009c0-28.994-23.502-52.495-52.497-52.495         c-28.989,0-52.496,23.501-52.496,52.495c0,19.141,10.247,35.886,25.551,45.055v20.571c0,4.455,3.614,8.067,8.065,8.067         h38.546c4.457,0,8.063-3.611,8.063-8.067v-21.052C137.887,170.313,147.784,153.82,147.784,135.009z"/>
							<path style="fill-rule:evenodd;clip-rule:evenodd;fill:#42758A;" d="M106.198,157.81c-0.017,13.548,0.048,38.33,0.223,52.45         c0.007,0.812,0.068,1.959,0.032,3.089c-0.035,1.271,0.185,2.376-0.837,2.979c-0.214,0.124-1.233,0.201-1.658-0.114         c-1.178-0.883-0.735-4.534-0.757-6.084c-0.168-13.966-0.127-38.355-0.219-52.257c-4.871-0.491-9.732-0.122-14.601-0.35         c0.005,14.109,0.433,37.15,0.611,51.744c0.019,1.573,0.722,5.101-0.606,6.069c-0.432,0.319-1.303,0.304-1.756-0.013         c-0.896-0.643-0.801-2.153-0.814-3.098c-0.173-14.353-0.534-37.32-0.708-51.65c-0.01-0.712,0.202-2.836,0.058-2.989         c-0.239-0.264-3.325-0.005-4.085-0.046c-3.015-0.162-6.695-0.942-9.476-3.283c-5.153-4.336-5.495-11.203-2.333-15.459         c3.842-5.159,11.576-5.119,16.357,0.563c3.767,4.473,2.684,9.738,2.811,14.979c4.737,0.065,9.475,0.104,14.211,0.156         c-0.227-2.394-0.266-5.158,0.002-7.815c0.084-0.859,0.074-1.816,0.26-2.597c1.795-7.464,11.123-11.532,17.05-6.377         c0.037,0.03,0.067,0.067,0.1,0.098c4.862,4.859,4.874,12.494-0.574,16.97C115.294,158.221,110.647,157.697,106.198,157.81z          M118.76,150.616c2.246-2.873,2.21-7.718-0.708-10.421c-2.614-2.419-6.427-1.924-8.857,0         c-3.42,2.701-3.057,5.922-3.204,8.838c-0.107,2.049-0.02,4.089,0.359,5.496C110.18,154.745,115.43,154.876,118.76,150.616z          M75.012,138.378c-1.442,0.448-3.555,2.614-4.04,4.008c-0.751,2.158-0.331,5.738,1.457,7.922         c2.813,3.437,6.671,3.93,9.779,3.964c0.883,0.01,2.513,0.29,2.826-0.063c0.023-0.031,0.053-1.974,0.06-2.797         c0.01-1.169,0.007-2.277-0.036-2.895c-0.219-3.154-0.434-6.099-3.214-8.329C79.581,138.366,76.974,137.762,75.012,138.378z"/>
						</g>
						<g>
							<path style="fill:#F8FAFF;" d="M65.815,171.492c-1.382,0-2.77-0.515-3.843-1.556c-5.923-5.74-10.307-12.929-12.67-20.79         c-0.877-2.924,0.778-6.008,3.702-6.886c2.925-0.881,6.008,0.777,6.886,3.702c1.821,6.06,5.201,11.604,9.773,16.031         c2.194,2.124,2.25,5.623,0.123,7.817C68.708,170.927,67.264,171.492,65.815,171.492z"/>
							<path style="fill:#F8FAFF;" d="M52.79,140.729c-3.052,0-5.523-2.47-5.523-5.524c0-17.02,8.684-32.476,23.242-41.335         c2.607-1.585,6.008-0.76,7.598,1.85c1.587,2.607,0.758,6.009-1.851,7.594c-11.231,6.837-17.934,18.759-17.934,31.891         C58.32,138.259,55.842,140.729,52.79,140.729z"/>
						</g>
					</g>
					<g>
						<path style="fill-rule:evenodd;clip-rule:evenodd;fill:#42758A;" d="M105.6,232.199c0,5.695-4.616,10.311-10.313,10.311        c-5.695,0-10.311-4.616-10.311-10.311c0-5.695,4.616-10.314,10.311-10.314C100.983,221.885,105.6,226.504,105.6,232.199z"/>
						<path style="fill-rule:evenodd;clip-rule:evenodd;fill:#42758A;" d="M117.452,213.604c0,1.566-1.268,2.833-2.836,2.833        L96.089,219.5l-18.532-3.063c-1.563,0-2.831-1.268-2.831-2.833v-2.247c0-1.562,1.268-2.836,2.831-2.836h37.06        c1.568,0,2.836,1.273,2.836,2.836V213.604z"/>
						<path style="fill-rule:evenodd;clip-rule:evenodd;fill:#42758A;" d="M117.452,221.514c0,1.567-1.268,2.835-2.836,2.835        l-19.174,3.441l-17.886-3.441c-1.563,0-2.831-1.268-2.831-2.835v-2.245c0-1.564,1.268-2.832,2.831-2.832h37.06        c1.568,0,2.836,1.269,2.836,2.832V221.514z"/>
						<path style="fill-rule:evenodd;clip-rule:evenodd;fill:#42758A;" d="M117.452,229.429c0,1.562-1.268,2.835-2.836,2.835h-37.06        c-1.563,0-2.831-1.272-2.831-2.835v-2.247c0-1.566,1.268-2.833,2.831-2.833h37.06c1.568,0,2.836,1.267,2.836,2.833V229.429z"/>
					</g>
				</g>
			</g>
			<g>
				<g>
					<g>
						<path style="fill:#7AB0C9;" d="M272.162,158.392c-0.22,0-0.442-0.031-0.662-0.094c-1.303-0.364-2.062-1.714-1.697-3.017        c0.789-2.813,1.711-5.62,2.745-8.351c0.48-1.263,1.896-1.901,3.159-1.42c1.263,0.477,1.9,1.89,1.42,3.157        c-0.982,2.595-1.859,5.262-2.609,7.934C274.216,157.684,273.231,158.392,272.162,158.392z"/>
						<path style="fill:#7AB0C9;" d="M459.17,158.825c-1.075,0-2.062-0.711-2.361-1.8c-1.494-5.435-3.497-10.772-5.947-15.858        c-0.586-1.218-0.074-2.682,1.143-3.269c1.218-0.585,2.683-0.075,3.269,1.143c2.578,5.352,4.683,10.963,6.258,16.685        c0.358,1.303-0.408,2.652-1.714,3.011C459.603,158.796,459.384,158.825,459.17,158.825z M282.435,134.609        c-0.432,0-0.866-0.112-1.263-0.351c-1.159-0.699-1.533-2.203-0.833-3.361c3.059-5.079,6.6-9.916,10.524-14.379        c0.893-1.017,2.44-1.115,3.456-0.222c1.016,0.893,1.115,2.442,0.222,3.456c-3.731,4.243-7.099,8.843-10.008,13.673        C284.075,134.188,283.264,134.609,282.435,134.609z M444.153,127.638c-0.759,0-1.504-0.349-1.984-1.008        c-3.316-4.564-7.066-8.858-11.142-12.763c-0.976-0.938-1.01-2.487-0.074-3.463c0.937-0.979,2.485-1.01,3.463-0.074        c4.287,4.106,8.229,8.623,11.715,13.421c0.796,1.096,0.552,2.627-0.542,3.423        C445.155,127.488,444.651,127.638,444.153,127.638z M305.295,108.602c-0.721,0-1.436-0.315-1.917-0.925        c-0.843-1.06-0.668-2.599,0.391-3.44c4.652-3.696,9.66-6.989,14.885-9.793c1.194-0.638,2.677-0.192,3.315,0.999        c0.638,1.195,0.191,2.676-1.001,3.317c-4.967,2.665-9.729,5.798-14.151,9.31C306.367,108.43,305.83,108.602,305.295,108.602z         M419.148,103.687c-0.465,0-0.933-0.131-1.35-0.408c-4.713-3.123-9.728-5.833-14.903-8.057        c-1.241-0.532-1.817-1.974-1.283-3.216c0.534-1.244,1.979-1.815,3.216-1.284c5.445,2.339,10.717,5.189,15.676,8.475        c1.125,0.748,1.435,2.268,0.687,3.397C420.721,103.302,419.943,103.687,419.148,103.687z M335.804,92.252        c-1.035,0-1.997-0.661-2.331-1.7c-0.414-1.286,0.292-2.666,1.58-3.08c5.643-1.82,11.491-3.138,17.384-3.917        c1.355-0.178,2.573,0.766,2.749,2.107c0.178,1.341-0.765,2.571-2.107,2.747c-5.602,0.742-11.163,1.994-16.525,3.724        C336.306,92.214,336.053,92.252,335.804,92.252z M387.342,90.03c-0.18,0-0.365-0.019-0.549-0.062        c-5.482-1.253-11.128-2.022-16.783-2.279c-1.352-0.062-2.397-1.208-2.336-2.559c0.063-1.351,1.216-2.406,2.559-2.333        c5.947,0.272,11.886,1.078,17.653,2.398c1.319,0.302,2.142,1.615,1.84,2.935C389.467,89.263,388.459,90.03,387.342,90.03z"/>
						<path style="fill:#7AB0C9;" d="M462.637,184.619c-1.352,0-2.449-1.096-2.449-2.448c0-2.793-0.123-5.602-0.364-8.352        c-0.117-1.348,0.878-2.535,2.227-2.654c1.352-0.127,2.534,0.878,2.652,2.227c0.253,2.893,0.383,5.847,0.383,8.779        C465.086,183.523,463.99,184.619,462.637,184.619z"/>
					</g>
					<g>
						
							<rect x="229.88" y="95.53" transform="matrix(0.1843 -0.9829 0.9829 0.1843 92.8256 312.4874)" style="fill:#42758A;" width="9.584" height="9.581"/>
						
							<rect x="266.213" y="148.658" transform="matrix(0.1849 -0.9828 0.9828 0.1849 70.0938 391.4088)" style="fill:#42758A;" width="9.585" height="9.582"/>
						<path style="fill:#42758A;" d="M270.851,153.553c0.862-0.587,1.32-1.407,1.029-1.83l-33.973-49.68        c-0.292-0.427-1.223-0.298-2.079,0.285c-0.862,0.591-1.321,1.41-1.024,1.839l33.971,49.676        C269.061,154.269,269.995,154.14,270.851,153.553"/>
					</g>
					<g>
						
							<rect x="502.202" y="129.573" transform="matrix(0.9989 -0.0466 0.0466 0.9989 -5.7117 23.7769)" style="fill:#42758A;" width="9.58" height="9.583"/>
						
							<rect x="458.863" y="177.162" transform="matrix(0.9989 -0.047 0.047 0.9989 -8.033 21.9742)" style="fill:#42758A;" width="9.585" height="9.581"/>
						<path style="fill:#42758A;" d="M463.788,182.075c-0.767-0.696-1.107-1.576-0.76-1.959l40.522-44.495        c0.347-0.381,1.253-0.128,2.019,0.57c0.77,0.702,1.11,1.577,0.759,1.962l-40.521,44.498        C465.459,183.031,464.561,182.775,463.788,182.075"/>
					</g>
				</g>
				<g>
					<g>
						<path style="fill:#FF4E4E;" d="M305.2,170.33c-0.007,0.235-0.063,1.026-0.098,2.177c0,0,6.186,5.461,10.734,5.385        c5.101-0.086,9.976-5.394,9.976-5.394c0-22.553,18.347-40.899,40.905-40.899l5.893-11.972l-5.893-8.68        C333.496,110.946,306.345,137.391,305.2,170.33z"/>
						<path style="fill:#568EAF;" d="M366.717,110.946v20.652c22.549,0,40.897,18.346,40.897,40.899l10.361,5.39l10.293-5.39        C428.268,138.558,400.656,110.946,366.717,110.946"/>
						<path style="fill:#FFAE24;" d="M363.113,225.763l4.179,8.281c33.418-0.627,60.976-27.994,60.976-61.547h-20.654        c0,22.11-18.2,40.172-40.159,40.879l-4.342,7.994V225.763z"/>
						<path style="fill:#F8FAFF;" d="M367.294,213.397v20.658c-33.941,0-62.148-27.613-62.148-61.558h20.652        C325.798,195.054,344.741,213.397,367.294,213.397"/>
					</g>
					<g>
						<path style="fill:#42758A;" d="M397.071,164.359c0,3.425-2.781,6.201-6.209,6.201c-3.424,0-6.208-2.776-6.208-6.201        c0-3.429,3.829-11.546,6.208-11.546C393.621,152.813,397.071,160.93,397.071,164.359"/>
						<path style="fill:#F8FAFF;" d="M437.645,82.366c2.556,1.955,3.045,5.615,1.092,8.168l-35.465,46.681        c-1.445,2.082-4.275,1.739-6.435,3.008c-2.451,1.438-3.74,3.471-5.103,2.435c-1.223-0.932,0.308-3.242,0.871-5.688        c0.615-2.669-0.119-4.637,1.398-6.832l35.469-46.681C431.426,80.901,435.082,80.41,437.645,82.366"/>
						<path style="fill:#42758A;" d="M392.457,145.299c-0.683,0-1.411-0.212-2.144-0.775c-2.208-1.688-1.241-4.374-0.605-6.149        c0.23-0.646,0.469-1.308,0.612-1.934c0.183-0.785,0.216-1.522,0.255-2.311c0.08-1.589,0.171-3.394,1.501-5.325l35.527-46.765        c1.327-1.738,3.246-2.854,5.413-3.145c2.157-0.294,4.31,0.279,6.046,1.604c1.738,1.33,2.845,3.25,3.141,5.413        c0.289,2.165-0.284,4.313-1.609,6.046l-35.46,46.672c-1.314,1.893-3.35,2.435-4.984,2.869        c-0.801,0.209-1.561,0.413-2.133,0.742c-0.655,0.39-1.239,0.845-1.797,1.287C395.313,144.247,393.973,145.299,392.457,145.299         M434.113,83.506c-0.156,0-0.314,0.012-0.471,0.035c-0.922,0.124-1.741,0.597-2.308,1.339l-35.465,46.674        c-0.489,0.709-0.542,1.415-0.611,2.807c-0.046,0.913-0.096,1.947-0.369,3.141c-0.122,0.518-0.273,1.012-0.433,1.484        c0.365-0.263,0.763-0.529,1.196-0.782c1.118-0.658,2.283-0.964,3.304-1.236c1.279-0.339,2.025-0.553,2.394-1.088        l35.523-46.759c0.57-0.745,0.809-1.66,0.69-2.585c-0.124-0.923-0.599-1.747-1.343-2.308        C435.606,83.753,434.871,83.506,434.113,83.506"/>
						<path style="fill:#42758A;" d="M445.623,93.895c-1.851,2.633-5.482,3.281-8.119,1.43l-11.266-7.875        c-2.64-1.85-3.284-5.486-1.435-8.124c1.847-2.639,5.478-3.278,8.116-1.435l11.266,7.884        C446.826,87.619,447.468,91.255,445.623,93.895"/>
						<path style="fill:#42758A;" d="M448.746,68.091c2.558,1.959,3.048,5.615,1.095,8.172l-8.346,10.927        c-1.956,2.559-5.615,3.048-8.175,1.097c-2.553-1.956-3.045-5.617-1.093-8.172l8.344-10.932        C442.529,66.625,446.19,66.132,448.746,68.091"/>
					</g>
				</g>
			</g>
			<g>
				<g>
					<polygon style="fill:#7AB0C9;" points="464.766,196.808 463.013,198.861 460.977,196.808 438.252,229.559 449.936,262.76        477.102,262.497 488.135,229.074      "/>
					<path style="fill:#F8FAFF;" d="M465.077,228.375l-0.311-31.567h-3.789l0.313,31.601c-1.845,0.779-3.139,2.597-3.117,4.722       c0.031,2.793,2.308,5.036,5.108,5.01c2.793-0.025,5.04-2.32,5.007-5.107C468.269,230.906,466.937,229.103,465.077,228.375"/>
					<path style="fill:#7AB0C9;" d="M482.915,277.496c0.015,1.752-1.396,3.191-3.15,3.21l-32.143,0.314       c-1.754,0.014-3.195-1.396-3.214-3.15l-0.078-8.655c-0.022-1.757,1.386-3.191,3.146-3.208l32.144-0.314       c1.756-0.022,3.193,1.387,3.206,3.143L482.915,277.496z"/>
				</g>
				<path style="fill:#E3F6FC;" d="M470.04,414.269l12.565-2.614c0.08-0.683,0.153-1.369,0.208-2.07      c0.115-1.634,0.13-3.256,0.065-4.853l-12.302-3.612c-0.139-0.758-0.314-1.504-0.51-2.242l9.569-8.544      c-0.902-2.137-1.975-4.192-3.208-6.138l-12.478,3.034c-0.499-0.583-1.017-1.139-1.556-1.684l4.02-12.19      c-1.838-1.391-3.789-2.638-5.853-3.708l-9.283,8.855c-0.721-0.249-1.455-0.481-2.198-0.679l-2.61-12.567      c-0.681-0.079-1.373-0.148-2.068-0.197c-1.635-0.131-3.254-0.143-4.853-0.075l-3.614,12.306      c-0.757,0.134-1.504,0.31-2.241,0.507l-8.54-9.573c-2.141,0.906-4.193,1.979-6.138,3.211l3.028,12.478      c-0.58,0.5-1.143,1.019-1.68,1.559l-12.189-4.022c-1.393,1.837-2.635,3.788-3.711,5.843l8.86,9.297      c-0.253,0.717-0.477,1.444-0.68,2.191l-12.568,2.611c-0.087,0.681-0.156,1.372-0.204,2.066      c-0.121,1.636-0.132,3.254-0.065,4.857l12.302,3.611c0.138,0.757,0.311,1.505,0.51,2.24l-9.577,8.545      c0.907,2.135,1.974,4.192,3.22,6.133l12.469-3.028c0.499,0.581,1.022,1.139,1.559,1.682l-4.018,12.189      c1.834,1.387,3.786,2.634,5.843,3.714l9.295-8.863c0.715,0.253,1.448,0.481,2.192,0.684l2.611,12.562      c0.681,0.084,1.37,0.153,2.068,0.205c1.635,0.122,3.254,0.134,4.854,0.07l3.612-12.302c0.758-0.141,1.501-0.314,2.242-0.51      l8.542,9.577c2.141-0.912,4.19-1.983,6.134-3.218l-3.024-12.481c0.579-0.494,1.134-1.016,1.677-1.556l12.191,4.024      c1.389-1.833,2.635-3.79,3.712-5.85l-8.863-9.29C469.609,415.74,469.837,415.011,470.04,414.269 M439.547,430.819      c-13.422-0.988-23.497-12.663-22.504-26.094c0.988-13.411,12.671-23.489,26.085-22.499      c13.426,0.988,23.501,12.672,22.511,26.089C464.645,421.737,452.964,431.814,439.547,430.819"/>
				<path style="fill:#FFAE24;" d="M473.415,349.274c0.415-1.019,0.667-2.245,0.766-3.74c0.07-1.012,0.066-2.017,0.057-2.989v-0.863      c-0.005-3.901-0.065-7.795-0.125-11.449l-0.014-1.131c-0.064-4.265-0.12-8.45-0.106-12.721l0.014-1.407      c0.014-1.267,0.031-2.7-0.03-4.071c-0.088-1.982-0.341-3.41-0.765-4.361l-0.072-0.15c-1.7-3.454-5.461-5.861-9.587-6.138      c-1.689-0.108-3.348,0.148-4.8,0.745c-2.171,0.893-3.863,2.515-4.897,4.69c-0.544,1.137-0.813,2.597-0.849,4.599      c-0.014,0.933,0.017,1.917,0.053,2.78l0.005,0.167c0.025,0.719,0.053,1.403,0.048,2.075c-0.013,3.344-0.005,6.462,0.007,9.621      l0.051,9.81c0.004,0.526-0.027,1.172-0.063,1.855l-0.016,0.247c-0.046,0.899-0.11,2.132-0.092,3.24      c0.025,1.411,0.185,2.466,0.486,3.136c-0.002,0.002-0.002,0.002-0.002,0.002c0.162,0.359,0.364,0.618,0.602,0.764      c0.42,0.265,0.943,0.246,1.22,0.208c0.335-0.046,0.759-0.222,0.859-0.301c0.389-0.326,0.602-0.913,0.655-1.795      c0.03-0.519,0.008-1.084-0.014-1.581l-0.01-0.258c-0.011-0.221-0.015-0.431-0.015-0.634c-0.008-3.704-0.008-6.936-0.002-10.078      l-0.001-1.599c0.005-3.416,0.006-7.17-0.024-11.454c0-0.401-0.02-0.912-0.042-1.483c-0.036-0.949-0.075-2.14-0.061-3.309      c0.032-2.383,0.303-3.915,0.856-4.813c0.68-1.11,1.685-1.964,2.904-2.463c0.908-0.375,1.937-0.549,2.963-0.495      c2.472,0.121,4.724,1.468,6.022,3.604c0.389,0.631,0.619,1.419,0.745,2.475c0.111,0.937,0.112,1.961,0.113,2.867l0.035,13.29      c0.014,4.423,0.031,8.821,0.048,13.126c0.005,0.519,0.041,1.162,0.079,1.786c0.063,1.178,0.141,2.518,0.075,3.853      c-0.131,2.662-0.822,4.436-2.105,5.427c-0.501,0.387-1.299,0.602-2.123,0.578c-0.914-0.033-1.766-0.34-2.41-0.863      c-0.985-0.804-1.491-2.11-1.633-4.188c-0.07-1.123-0.026-2.346,0.007-3.326l0.006-0.124c0.017-0.462,0.033-0.905,0.036-1.315      c0.039-4.22,0.054-7.882,0.048-11.202c-0.005-4.084-0.041-7.672-0.109-10.962l-0.007-0.309      c-0.017-0.621-0.044-1.559,0.063-2.337c0.045-0.36,0.198-1.466,0.982-1.788c0.153-0.065,0.321-0.093,0.505-0.084      c0.224,0.012,0.552,0.091,0.813,0.672c0.277,0.619,0.369,1.561,0.426,2.481c0.072,1.167,0.067,2.491,0.066,3.658l-0.002,0.101      c-0.001,0.338,0,0.661,0,0.957l0.025,10.548c0.002,2.825,0.01,5.674,0.005,8.617l0.002,0.242      c-0.004,0.693-0.01,1.411,0.132,1.985c0.159,0.671,0.456,1.007,0.994,1.161c0.972,0.288,1.604,0,1.997-0.906      c0.316-0.726,0.47-1.796,0.455-3.187c-0.033-3.146-0.073-6.697-0.098-10.238c-0.026-3.541-0.048-7.068-0.051-10.172      c-0.004-0.562,0.015-1.105,0.032-1.632l0.005-0.172c0.03-0.923,0.06-1.796-0.012-2.609c-0.13-1.47-0.554-2.506-1.439-3.493      c-0.999-1.134-2.329-1.753-3.744-1.747c-1.314,0.012-2.595,0.599-3.425,1.577c-0.77,0.902-1.213,2.342-1.359,4.402      c-0.082,1.199-0.053,2.445-0.036,3.56c0.014,0.531,0.026,1.036,0.022,1.493c-0.01,2.707,0,5.476,0.009,8.034l0.01,2.133      c0.012,3.142,0.024,6.107,0.015,9c-0.003,0.64-0.019,1.292-0.032,1.944c-0.029,1.071-0.056,2.178-0.017,3.212      c0.058,1.894,0.334,3.244,0.844,4.282c1.444,2.896,4.142,4.45,7.216,4.162c0.763-0.069,1.518-0.255,2.245-0.553      C470.918,353.097,472.54,351.437,473.415,349.274z"/>
			</g>
		</g>
	</g>
</g>















</svg>
